mtllib materials.mtl
v 0.04012841 -0.0654155 -0.03747931
v 0.04012841 -0.0654155 0.0425207
v 0.08012843 -0.07604432 0.03314948
v 0.08012843 -0.07604432 -0.02810812
v -0.03987163 -0.0654155 -0.03747931
v -0.1198716 -0.04458082 -0.01831391
v -0.1218716 -0.09025002 -0.01831391
v -0.07987159 -0.07583284 -0.02789661
v -0.03987163 -0.0654155 0.0425207
v 0.04012841 -0.02541554 -0.02747932
v 0.04012841 -0.02541554 0.03252071
v -0.03987163 -0.02541554 0.03252071
v -0.03987163 -0.02541554 -0.02747932
v -0.07987159 -0.03499818 0.032938
v -0.1198716 -0.04458082 0.02335531
v -0.07987159 -0.07583284 0.032938
v -0.1618716 -0.06858075 0.001686156
v 0.08012843 -0.0347867 0.03314948
v 0.1201285 -0.04415786 -0.01873693
v 0.1201285 -0.04415786 0.02377832
v 0.1201285 -0.08667314 -0.01873693
v 0.1201285 -0.08667314 0.02377832
v 0.1601285 -0.06415784 0.001263082
v -0.1655132 0.01259816 0.02089858
v -0.1655132 0.01259816 -0.0158574
v -0.1218716 -0.09025002 0.02335531
v 0.1681287 0.01184213 -0.01873687
v 0.1681287 0.01184213 0.02377832
v 0.03012854 -0.06541562 0.00252068
v 0.02610928 -0.06541562 -0.01247931
v 0.02610928 -0.2254156 -0.01247931
v 0.03012848 -0.2254156 0.00252068
v 0.01512849 -0.06541562 -0.02346009
v 0.01512849 -0.2254156 -0.02346009
v 0.0001285076 -0.06541562 -0.02747932
v 0.0001285076 -0.2254156 -0.02747932
v -0.01487148 -0.06541562 -0.02346009
v -0.01487148 -0.2254156 -0.02346009
v -0.02585226 -0.06541562 -0.01247931
v -0.02585226 -0.2254156 -0.01247931
v -0.02987146 -0.06541562 0.00252068
v -0.02987152 -0.2254156 0.00252068
v -0.02585226 -0.06541562 0.01752067
v -0.02585226 -0.2254156 0.01752067
v -0.01487148 -0.06541562 0.02850145
v -0.01487148 -0.2254156 0.02850145
v 0.0001285076 -0.06541562 0.03252071
v 0.0001285076 -0.2254156 0.03252071
v 0.01512849 -0.06541562 0.02850145
v 0.01512849 -0.2254156 0.02850145
v 0.02610928 -0.06541562 0.01752067
v 0.02610928 -0.2254156 0.01752067
v 0.02610922 -0.2654157 -0.0124796
v 0.03012842 -0.2654157 0.002520382
v 0.01512843 -0.2654157 -0.02346042
v 0.000128448 -0.2654157 -0.02747962
v -0.01487154 -0.2654157 -0.02346042
v -0.02585232 -0.2654157 -0.0124796
v -0.02987158 -0.2654157 0.002520382
v -0.02585232 -0.2654157 0.01752037
v -0.01487154 -0.2654157 0.02850115
v 0.000128448 -0.2654157 0.03252035
v 0.01512843 -0.2654157 0.02850115
v 0.02610922 -0.2654157 0.01752037
v -0.02987164 -0.3154154 0.03252071
v -0.01987159 -0.3254155 0.00252068
v -0.05987161 -0.2654155 0.00252068
v 0.03012842 -0.3154154 0.03252071
v 0.06012839 -0.2654155 0.00252068
v 0.02012843 -0.3254155 0.00252068
v 0.0001283884 -0.3254155 0.02252066
v 0.0001283884 -0.3254155 -0.01747933
v -0.03987163 -0.2654155 0.0425207
v 0.0001283884 -0.2654155 0.00252068
v -0.002984405 -0.2631264 0.04402918
v -0.02987164 -0.3154155 -0.02747932
v 0.002432585 -0.2628171 -0.03809977
v 0.03012842 -0.3154155 -0.02747932
v 0.04012841 -0.2654155 -0.03747931
v -0.03987163 -0.2654155 -0.03747931
v 0.04012841 -0.2654155 0.0425207
v -0.0006244779 0.1644486 0.01238799
v 0.009349227 0.164517 0.01034623
v 0.009429455 0.1344726 0.009200692
v -0.0004661083 0.1344879 0.01293051
v 0.03930491 0.1643871 -0.002662063
v 0.03946328 0.1344264 -0.002119541
v 0.00930655 0.1640469 -0.0156008
v 0.00946492 0.1340864 -0.01505828
v -0.0006738305 0.1639057 -0.017573
v -0.0005154014 0.133945 -0.01703048
v -0.01064754 0.1638371 -0.01553124
v -0.01048911 0.1338764 -0.01498866
v -0.04060316 0.163967 -0.002522945
v -0.04044479 0.1340065 -0.001980424
v -0.0106048 0.1643072 0.01041579
v -0.01044643 0.1343465 0.01095831
v -0.0423618 0.6635052 -0.01157027
v -0.01236343 0.6638452 0.001368463
v 0.0128296 -0.02573645 0.01074028
v 0.0002500415 -0.02571714 0.01548171
v -0.01240617 0.663375 -0.02457857
v -0.002432466 0.6634437 -0.02662033
v 0.007547915 0.6635851 -0.02464813
v 0.03754634 0.6639251 -0.01170939
v 0.007590592 0.6640552 0.001298904
v -0.002383113 0.6639866 0.003340662
v -0.04330879 0.9324673 -0.01644349
v -0.01331037 0.9328071 -0.003504753
v -0.01335311 0.9323372 -0.02945182
v -0.003379405 0.9324056 -0.03149354
v 0.006600916 0.9325472 -0.02952138
v 0.0365994 0.932887 -0.01658261
v 0.006643653 0.9330171 -0.003574312
v -0.003330052 0.9329487 -0.001532614
v -0.002472222 1.023044 -0.01667094
v 0.01018113 -0.02611852 -0.01250708
v 0.04017943 -0.02577841 0.0004316568
v 0.0002007484 -0.02626002 -0.01447928
v -0.009772956 -0.02632844 -0.01243746
v -0.03972858 -0.02619839 0.0005707741
v -0.009730279 -0.02585816 0.01350951
vn -0.2568087 -0.9664623 6.716904E-10
vn -0.2304767 0.01009336 -0.9730255
vn 0 -1 0
vn 0 1 0
vn -1.897375E-08 0.2425356 -0.9701425
vn 2.033518E-09 0.2425356 0.9701425
vn -0.2329743 0.9724829 -8.043001E-09
vn -0.2329751 6.164959E-09 0.9724827
vn 0.252027 -0.9677202 -3.747458E-09
vn -0.4387856 0.01921587 -0.8983862
vn 0.228103 -1.158367E-09 0.973637
vn 0.228103 0.973637 1.545616E-08
vn 0 0 0
vn 0.4905136 -0.8714335 2.767149E-09
vn 0.7815458 0.6238478 -5.581085E-07
vn -0.4676261 0.02047884 0.883689
vn -0.4763281 -0.8792676 3.276332E-07
vn 0.4905126 6.310555E-08 0.8714341
vn -0.7592548 0.6507934 -5.009048E-08
vn 0.4472131 2.66452E-08 -0.8944275
vn -0.3385647 -0.2310599 0.9121323
vn 0 0 0
vn -0.3176699 -0.2138848 -0.9237636
vn 0.3178532 -0.2724462 -0.9081533
vn 0.9945052 -0.1046873 8.533495E-09
vn 0.3497273 -0.2997681 0.8875978
vn 0.228103 -1.158367E-09 0.973637
vn -0.2256555 0.009882203 0.974157
vn -0.2568086 -0.9664623 -2.928787E-08
vn 0.3246701 -0.9458273 -2.776127E-07
vn 0.04153518 0.2423263 0.9693053
vn -0.04792741 0.2422569 0.9690276
vn 0.1607211 0.2393826 -0.9575306
vn -0.166877 0.2391347 -0.9565389
vn 0.9659259 3.130419E-08 -0.2588191
vn 0.7071068 -1.049023E-08 -0.7071069
vn 0.2588189 1.476773E-08 -0.9659259
vn -0.2588192 8.491467E-08 -0.9659259
vn -0.7071069 1.37343E-08 -0.7071068
vn -0.965926 2.575561E-07 -0.2588188
vn -0.9659258 1.024499E-07 0.2588194
vn -0.7071066 2.735058E-08 0.707107
vn -0.2588189 2.366819E-07 0.9659259
vn 0.2588191 6.014447E-08 0.9659259
vn 0.707107 -1.298451E-08 0.7071068
vn 0.9659259 -1.750531E-07 0.2588189
vn 1.748456E-07 1 0
vn 0.9659265 5.005487E-07 -0.258817
vn 0.7071074 4.484282E-06 -0.7071064
vn 0.2588179 7.193887E-06 -0.9659262
vn -0.2588179 7.947631E-06 -0.9659262
vn -0.7071074 6.58588E-06 -0.7071064
vn -0.9659255 3.379088E-06 -0.2588208
vn -0.9659255 -4.801954E-07 0.2588207
vn -0.7071068 -4.204724E-06 0.7071069
vn -0.2588189 -7.552115E-06 0.965926
vn 0.2588188 -8.301262E-06 0.9659259
vn 0.7071069 -6.309696E-06 0.7071068
vn 0.9659265 -3.358004E-06 0.2588171
vn -1.748456E-07 -1 0
vn -0.8285169 -0.5523454 -0.09205648
vn 0.8285173 -0.5523449 -0.09205507
vn 0 -1 0
vn 0 1 0
vn 0.2059725 -0.3101799 0.9280968
vn 0.2047892 -0.313032 -0.9274009
vn 0.8285172 -0.5523448 0.09205735
vn -0.1982108 -0.3287505 0.9233827
vn -0.8285167 -0.5523453 0.09205867
vn -0.210638 -0.2988482 -0.9307638
vn 0 1 0
vn -7.372471E-15 1 8.433125E-08
vn -0.002307263 -0.1965593 -0.9804893
vn -0.8638685 -0.2591605 -0.431934
vn -0.2357021 -0.9428092 -0.2357017
vn -0.8638685 -0.2591611 0.4319336
vn -0.02754615 -0.2013367 0.9791347
vn -0.2357041 -0.9428081 0.2357041
vn 0 1 0
vn 0.8638685 -0.2591611 0.4319337
vn 0.02361641 -0.2006014 0.9793882
vn 0.235704 -0.942808 0.2357046
vn 0.8638686 -0.2591604 -0.431934
vn 0.002585507 -0.1966127 -0.9804778
vn 0.2357019 -0.9428092 -0.2357022
vn 0 -1 0
vn 0.06750491 0.9954326 0.06750507
vn -0.06031346 0.9963557 0.06031334
vn -0.05940983 0.9964642 -0.0594098
vn 0.05116784 0.9973784 -0.05116783
vn 0.2004044 0.01789472 0.9795498
vn 0.3983153 0.01871244 0.9170576
vn 0.3961436 -0.01453031 -0.9180736
vn 0.1940602 -0.01673487 -0.9808468
vn -0.2003951 -0.01879892 -0.9795348
vn -0.3983151 -0.01871239 -0.9170577
vn -0.396144 0.01453032 0.9180734
vn -0.1940612 0.01673525 0.9808466
vn -0.3961463 0.0152327 0.9180611
vn 0.3526695 0.01647557 0.935603
vn -0.3983179 -0.0180117 -0.9170706
vn -0.2003987 -0.01844635 -0.9795407
vn 0.1940636 -0.01708117 -0.9808402
vn 0.3961458 -0.01523275 -0.9180612
vn 0.3983173 0.01801167 0.9170707
vn 0.2003988 0.01844635 0.9795407
vn -0.1940646 0.01708117 0.98084
vn -0.3961456 0.01523923 0.9180613
vn -0.3983181 -0.01801849 -0.9170703
vn -0.2003975 -0.01845351 -0.9795409
vn 0.1940628 -0.01708825 -0.9808402
vn 0.3961454 -0.01523928 -0.9180613
vn 0.3983168 0.01801841 0.9170709
vn 0.2003962 0.01845356 0.9795411
vn -0.194062 0.01708833 0.9808404
vn -0.3913756 0.1787184 0.9027098
vn -0.3915839 0.1742767 -0.9034874
vn -0.1990194 0.1601023 -0.9668291
vn 0.1893254 0.1566264 -0.9693421
vn 0.3888405 0.1676248 -0.9059277
vn 0.3930594 0.171226 0.90343
vn 0.1968864 0.1606355 0.9671773
vn -0.1934615 0.1643631 0.9672422
vn 0.3961371 -0.01284945 -0.9181014
vn 0.1940396 -0.01475273 -0.9808828
vn -0.2004243 -0.01649519 -0.9795703
vn -0.3983217 -0.01638504 -0.9170995
vn -0.396137 0.01284953 0.9181015
vn -0.1940398 0.01475275 0.9808827
vn 0.00446423 -0.9998633 0.01592491
vn 0.3526695 0.01647557 0.935603
usemtl mat16
f 4//1 3//1 2//1 1//1
f 8//2 7//2 6//2 5//2
f 2//3 9//3 5//3 1//3
f 13//4 12//4 11//4 10//4
f 5//5 13//5 10//5 1//5
f 11//6 12//6 9//6 2//6
f 6//7 15//7 14//7 12//7 13//7
f 14//8 16//8 9//8
f 16//9 8//9 5//9 9//9
f 17//10 6//10 7//10
f 3//11 18//11 2//11
f 18//12 20//12 19//12 10//12 11//12
f 19//13 21//13 4//13 1//13
f 23//14 22//14 21//14
f 25//15 24//15 15//15 6//15
f 17//16 26//16 15//16
f 17//17 7//17 26//17
f 23//18 20//18 22//18
f 28//19 27//19 19//19 20//19
f 23//20 21//20 19//20
f 24//21 17//21 15//21
f 24//22 25//22 17//22
f 25//23 6//23 17//23
f 27//24 23//24 19//24
f 27//25 28//25 23//25
f 28//26 20//26 23//26
f 3//27 22//27 20//27 18//27
f 14//28 15//28 26//28 16//28
f 4//29 21//29 22//29 3//29
f 16//30 26//30 7//30 8//30
f 18//31 11//31 2//31
f 9//32 12//32 14//32
f 1//33 10//33 19//33
f 6//34 13//34 5//34
f 67//61 66//61 65//61
f 70//62 69//62 68//62
f 66//63 72//63 71//63
f 74//64 67//64 73//64
f 71//65 75//65 65//65
f 77//66 72//66 76//66
f 70//67 78//67 69//67
f 71//68 68//68 75//68
f 67//69 76//69 66//69
f 77//70 78//70 72//70
f 74//71 69//71 79//71
f 74//72 80//72 67//72
f 76//73 80//73 77//73
f 67//74 80//74 76//74
f 66//75 76//75 72//75
f 65//76 73//76 67//76
f 75//77 73//77 65//77
f 71//78 65//78 66//78
f 74//79 81//79 69//79
f 69//80 81//80 68//80
f 68//81 81//81 75//81
f 70//82 68//82 71//82
f 78//83 79//83 69//83
f 77//84 79//84 78//84
f 72//85 78//85 70//85
f 72//86 70//86 71//86
f 79//87 77//87 74//87
f 74//88 77//88 80//88
f 73//89 75//89 74//89
f 74//90 75//90 81//90
usemtl mat13
f 32//35 31//35 30//35 29//35
f 31//36 34//36 33//36 30//36
f 34//37 36//37 35//37 33//37
f 36//38 38//38 37//38 35//38
f 38//39 40//39 39//39 37//39
f 40//40 42//40 41//40 39//40
f 42//41 44//41 43//41 41//41
f 44//42 46//42 45//42 43//42
f 46//43 48//43 47//43 45//43
f 48//44 50//44 49//44 47//44
f 50//45 52//45 51//45 49//45
f 52//46 32//46 29//46 51//46
f 29//47 30//47 33//47 35//47 37//47 39//47 41//47 43//47 45//47 47//47 49//47 51//47
f 54//48 53//48 31//48 32//48
f 53//49 55//49 34//49 31//49
f 55//50 56//50 36//50 34//50
f 56//51 57//51 38//51 36//51
f 57//52 58//52 40//52 38//52
f 58//53 59//53 42//53 40//53
f 59//54 60//54 44//54 42//54
f 60//55 61//55 46//55 44//55
f 61//56 62//56 48//56 46//56
f 62//57 63//57 50//57 48//57
f 63//58 64//58 52//58 50//58
f 64//59 54//59 32//59 52//59
f 64//60 63//60 62//60 61//60 60//60 59//60 58//60 57//60 56//60 55//60 53//60 54//60
usemtl mat21
f 85//91 84//91 83//91 82//91
f 84//92 87//92 86//92 83//92
f 87//93 89//93 88//93 86//93
f 89//94 91//94 90//94 88//94
f 91//95 93//95 92//95 90//95
f 93//96 95//96 94//96 92//96
f 95//97 97//97 96//97 94//97
f 97//98 85//98 82//98 96//98
f 99//99 98//99 94//99 96//99
f 101//100 100//100 84//100 85//100
f 98//101 102//101 92//101 94//101
f 102//102 103//102 90//102 92//102
f 103//103 104//103 88//103 90//103
f 104//104 105//104 86//104 88//104
f 105//105 106//105 83//105 86//105
f 106//106 107//106 82//106 83//106
f 107//107 99//107 96//107 82//107
f 109//108 108//108 98//108 99//108
f 108//109 110//109 102//109 98//109
f 110//110 111//110 103//110 102//110
f 111//111 112//111 104//111 103//111
f 112//112 113//112 105//112 104//112
f 113//113 114//113 106//113 105//113
f 114//114 115//114 107//114 106//114
f 115//115 109//115 99//115 107//115
f 116//116 108//116 109//116
f 116//117 110//117 108//117
f 116//118 111//118 110//118
f 116//119 112//119 111//119
f 116//120 113//120 112//120
f 116//121 114//121 113//121
f 116//122 115//122 114//122
f 116//123 109//123 115//123
f 118//124 117//124 89//124 87//124
f 117//125 119//125 91//125 89//125
f 119//126 120//126 93//126 91//126
f 120//127 121//127 95//127 93//127
f 121//128 122//128 97//128 95//128
f 122//129 101//129 85//129 97//129
f 122//130 121//130 120//130 119//130 117//130 118//130 100//130 101//130
f 100//131 118//131 87//131 84//131
